<svg width="400" height="320" viewBox="0 0 400 320" fill="none" xmlns="http://www.w3.org/2000/svg">
  <rect width="400" height="320" rx="32" fill="#EEF6FA"/>
  <path d="M40 210c50 30 120 46 160 46s110-16 160-46" stroke="#B9D9E8" stroke-width="12" stroke-linecap="round"/>
  <path d="M200 70c-78 0-140 52-140 116 0 50 36 84 140 84s140-34 140-84c0-64-62-116-140-116Z" fill="#D1E8F2"/>
  <path d="M330 192c0 38-48 76-130 76s-130-38-130-76 58-88 130-88 130 50 130 88Z" fill="#A9D0E5"/>
  <path d="M122 170c0-31 38-54 78-54 51 0 94 34 100 70 3 20-5 32-9 32-7 0-36-46-91-46-53 0-66 38-80 38-6 0-14-6-14-40Z" fill="#4A8DB8"/>
  <path d="M188 186c-24 0-44 12-44 26 0 14 20 26 44 26 23 0 44-12 44-26 0-14-21-26-44-26Z" fill="#F2F6F8"/>
  <path d="M250 163c6-3 16-3 22 0 6 4 6 10 0 14-6 3-16 3-22 0-6-4-6-10 0-14Z" fill="#F2F6F8"/>
  <path d="M136 154c-6-3-16-3-22 0-6 4-6 10 0 14 6 3 16 3 22 0 6-4 6-10 0-14Z" fill="#F2F6F8"/>
  <circle cx="190" cy="192" r="8" fill="#1F2A37"/>
  <circle cx="222" cy="192" r="8" fill="#1F2A37"/>
  <path d="M192 216c6 8 22 8 28 0" stroke="#1F2A37" stroke-width="4" stroke-linecap="round"/>
  <path d="M288 118c0 16.569-13.431 30-30 30s-30-13.431-30-30 13.431-30 30-30 30 13.431 30 30Z" fill="#F2A365" opacity=".35"/>
  <path d="M146 94c0 22.643-18.357 41-41 41s-41-18.357-41-41 18.357-41 41-41 41 18.357 41 41Z" fill="#7FB3CB" opacity=".4"/>
  <path d="M240 246c0-10-26-18-40-18-16 0-40 8-40 18" stroke="#7AAEC5" stroke-width="8" stroke-linecap="round"/>
  <path d="M98 214c0 6-6 10-10 10s-10-4-10-10 6-10 10-10 10 4 10 10Z" fill="#4A8DB8"/>
  <path d="M322 214c0 6-6 10-10 10s-10-4-10-10 6-10 10-10 10 4 10 10Z" fill="#4A8DB8"/>
</svg>
