<svg xmlns="http://www.w3.org/2000/svg" viewBox="0 0 800 600" role="img" aria-labelledby="title desc">
  <title id="title">Illustrated backyard hens eating crumble</title>
  <desc id="desc">Abstract illustration with warm gradient and geometric hens representing BSFL backyard layer crumble.</desc>
  <defs>
    <linearGradient id="chicken-bg" x1="0%" y1="0%" x2="100%" y2="100%">
      <stop offset="0%" stop-color="#fff7ed" />
      <stop offset="50%" stop-color="#ffd7ba" />
      <stop offset="100%" stop-color="#ff9f68" />
    </linearGradient>
    <linearGradient id="hen-body" x1="0%" y1="0%" x2="0%" y2="100%">
      <stop offset="0%" stop-color="#fff" />
      <stop offset="100%" stop-color="#f4b252" />
    </linearGradient>
    <linearGradient id="hen-body-2" x1="0%" y1="0%" x2="0%" y2="100%">
      <stop offset="0%" stop-color="#ffe5cc" />
      <stop offset="100%" stop-color="#f26d30" />
    </linearGradient>
  </defs>
  <rect width="800" height="600" fill="url(#chicken-bg)" rx="48" />
  <ellipse cx="400" cy="470" rx="280" ry="120" fill="#9c5832" opacity="0.25" />
  <path
    d="M290 240c-40 42-82 120-36 178 38 46 124 40 162-6 48-60 0-164-76-186-20-6-38 0-50 14z"
    fill="url(#hen-body)"
  />
  <path
    d="M470 260c-44 36-58 116-16 160 44 46 130 42 162-4 38-54 8-134-50-166-26-14-62-12-96 10z"
    fill="url(#hen-body-2)"
  />
  <circle cx="328" cy="262" r="12" fill="#1f2937" />
  <circle cx="508" cy="284" r="12" fill="#1f2937" />
  <path
    d="M302 220c16-20 64-34 96-14 28 18 20 54-14 58"
    fill="none"
    stroke="#f97316"
    stroke-width="18"
    stroke-linecap="round"
    opacity="0.55"
  />
  <path
    d="M486 232c26-20 70-24 94 0 22 22 10 54-20 62"
    fill="none"
    stroke="#ea580c"
    stroke-width="18"
    stroke-linecap="round"
    opacity="0.55"
  />
  <path
    d="M246 422c30-36 102-48 148-28"
    fill="none"
    stroke="#6d3d1c"
    stroke-width="14"
    stroke-linecap="round"
    opacity="0.5"
  />
  <path
    d="M484 432c48-24 130-12 164 18"
    fill="none"
    stroke="#813814"
    stroke-width="14"
    stroke-linecap="round"
    opacity="0.45"
  />
  <circle cx="230" cy="450" r="10" fill="#f7c37a" />
  <circle cx="260" cy="462" r="12" fill="#f7c37a" />
  <circle cx="300" cy="452" r="9" fill="#f7c37a" />
  <circle cx="520" cy="460" r="11" fill="#f7c37a" />
  <circle cx="552" cy="442" r="9" fill="#f7c37a" />
  <circle cx="594" cy="468" r="10" fill="#f7c37a" />
</svg>
