<svg width="400" height="320" viewBox="0 0 400 320" fill="none" xmlns="http://www.w3.org/2000/svg">
  <rect width="400" height="320" rx="32" fill="#F4F0E8"/>
  <path d="M320 212c0 56.08-42.56 86-120 86s-120-29.92-120-86 42.56-94 120-94 120 37.92 120 94Z" fill="#D7E8DD"/>
  <path d="M292 164c0 40.33-30.58 62-92 62s-92-21.67-92-62 30.58-68 92-68 92 27.67 92 68Z" fill="#B6D1C0"/>
  <path d="M175 126c-4-16-18-26-30-24-11 2-19 13-17 25 2 15 16 26 31 26h1c10-1 18-13 15-27Z" fill="#F7B989"/>
  <path d="M227 126c4-16 18-26 30-24 11 2 19 13 17 25-2 15-16 26-31 26h-1c-10-1-18-13-15-27Z" fill="#F7B989"/>
  <path d="M206 232c-28 0-50-23.49-50-52.5S178 127 206 127s50 23.49 50 52.5S234 232 206 232Z" fill="#FFE0C7"/>
  <path d="M188 184a6 6 0 1 1-12 0 6 6 0 0 1 12 0ZM236 184a6 6 0 1 1-12 0 6 6 0 0 1 12 0Z" fill="#1F2A37"/>
  <path d="M199 210c0 5 3 10 7 10s7-5 7-10" stroke="#1F2A37" stroke-width="4" stroke-linecap="round"/>
  <path d="M140 120c-10-12-30-10-38 3-8 14-2 33 14 39 12 4 22 0 29-11" stroke="#1F2A37" stroke-width="6" stroke-linecap="round"/>
  <path d="M272 120c10-12 30-10 38 3 8 14 2 33-14 39-12 4-22 0-29-11" stroke="#1F2A37" stroke-width="6" stroke-linecap="round"/>
  <path d="M206 98c-29 0-54 24.63-54 54.5S177 207 206 207s54-24.63 54-54.5S235 98 206 98Zm0 6c26 0 47 21.82 47 48.5S232 201 206 201s-47-21.82-47-48.5S180 104 206 104Z" fill="#1F2A37" fill-opacity=".08"/>
  <path d="M92 246c32 24 78 36 114 36s82-12 114-36" stroke="#B6D1C0" stroke-width="12" stroke-linecap="round"/>
  <path d="M140 272c0-12 30-22 66-22s66 10 66 22" stroke="#9FBCA9" stroke-width="8" stroke-linecap="round"/>
  <path d="M312 76c0 22.091-17.909 40-40 40s-40-17.909-40-40 17.909-40 40-40 40 17.909 40 40Z" fill="#F2A365" opacity=".35"/>
  <path d="M121 60c0 18.226-14.774 33-33 33S55 78.226 55 60s14.774-33 33-33 33 14.774 33 33Z" fill="#9FBCA9" opacity=".4"/>
</svg>
