<svg width="400" height="320" viewBox="0 0 400 320" fill="none" xmlns="http://www.w3.org/2000/svg">
  <rect width="400" height="320" rx="32" fill="#F9F5F0"/>
  <path d="M52 236c36 42 100 68 148 68s112-26 148-68" stroke="#E3D8C8" stroke-width="14" stroke-linecap="round"/>
  <path d="M200 70c-72 0-118 50-118 108 0 57 46 94 118 94s118-37 118-94c0-58-46-108-118-108Z" fill="#E0E7D8"/>
  <path d="M262 148c0 46-27.11 88-62 88s-62-42-62-88 27.11-70 62-70 62 24 62 70Z" fill="#FFFFFF"/>
  <path d="M187 122c-2-14-16-24-27-21-10 3-17 15-13 28 4 16 19 26 31 22 9-3 13-14 9-29Z" fill="#F8C6A9"/>
  <path d="M213 122c2-14 16-24 27-21 10 3 17 15 13 28-4 16-19 26-31 22-9-3-13-14-9-29Z" fill="#F8C6A9"/>
  <path d="M176 172a10 10 0 1 1-20 0 10 10 0 0 1 20 0ZM242 172a10 10 0 1 1-20 0 10 10 0 0 1 20 0Z" fill="#1F2A37"/>
  <path d="M194 206c3 6 10 10 16 10s13-4 16-10" stroke="#1F2A37" stroke-width="5" stroke-linecap="round"/>
  <path d="M132 136c-11-14-34-11-43 5-7 15-1 33 16 39 13 4 23 0 30-12" stroke="#1F2A37" stroke-width="6" stroke-linecap="round"/>
  <path d="M268 136c11-14 34-11 43 5 7 15 1 33-16 39-13 4-23 0-30-12" stroke="#1F2A37" stroke-width="6" stroke-linecap="round"/>
  <path d="M200 106c-27 0-52 23.4-52 52.5S173 211 200 211s52-23.4 52-52.5S227 106 200 106Zm0 4c26 0 48 22.13 48 48.5S226 207 200 207s-48-22.13-48-48.5S174 110 200 110Z" fill="#9BB7AD" fill-opacity=".3"/>
  <path d="M108 240c20 18 55 30 92 30s72-12 92-30" stroke="#C7D6CA" stroke-width="12" stroke-linecap="round"/>
  <path d="M296 92c0 20.435-16.565 37-37 37s-37-16.565-37-37 16.565-37 37-37 37 16.565 37 37Z" fill="#A8C7BC" opacity=".5"/>
  <path d="M142 70c0 17.673-14.327 32-32 32s-32-14.327-32-32 14.327-32 32-32 32 14.327 32 32Z" fill="#F2A365" opacity=".35"/>
  <path d="M200 54c4 0 8 2 10 6l22 38c4 8-2 18-11 18h-42c-9 0-15-10-11-18l22-38c2-4 6-6 10-6Z" fill="#F2DACC"/>
  <path d="M224 120a6 6 0 1 1-12 0 6 6 0 0 1 12 0Z" fill="#1F2A37"/>
  <path d="M188 120a6 6 0 1 1-12 0 6 6 0 0 1 12 0Z" fill="#1F2A37"/>
</svg>
